# Blender v2.77 (sub 0) OBJ File: 'model.blend'
# www.blender.org
mtllib model.mtl
o room_Cube
v -1.835843 0.776721 2.748241
v -1.835843 2.124963 2.748241
v -0.542496 2.124963 2.748242
v -0.542496 0.776721 2.748242
v 2.017161 2.124963 2.748242
v 2.017161 0.776721 2.748242
v -2.947495 2.595044 2.748241
v 2.947494 2.595044 2.748242
v 2.947494 0.000000 2.748242
v 2.947494 0.000000 -0.854807
v 2.947495 2.595044 -2.748241
v 2.947494 2.164982 -0.854807
v 2.947494 0.000000 -2.054807
v 2.947494 2.164982 -2.054807
v -2.947495 2.124963 -1.636933
v -2.947495 2.124963 1.636933
v -2.947495 0.776721 1.636933
v -2.947494 0.776721 -1.636933
v -2.947495 0.000000 2.748242
v -2.947494 0.000000 -2.748242
v -2.947495 2.595044 -2.748242
v 2.947494 0.000000 -2.748242
v 2.921646 2.064982 -0.954807
v 2.921646 2.064982 -1.954807
v 2.921646 0.000000 -1.954807
v 2.921646 0.000000 -0.954807
v 2.867079 0.000000 -0.954807
v 2.867079 2.064982 -0.954807
v 2.867079 2.064982 -1.954807
v 2.867079 0.000000 -1.954807
v 2.867079 0.000000 -0.854807
v 2.867079 0.000000 -2.054807
v 2.867079 2.164982 -0.854807
v 2.867079 2.164982 -2.054807
v 0.723815 0.776721 2.748242
v 0.723815 2.124963 2.748242
v -1.765132 0.847432 2.848241
v -1.765132 2.054252 2.848241
v -0.613207 2.054252 2.848242
v -0.613207 0.847431 2.848242
v -1.765132 0.847432 2.698241
v -1.765132 2.054252 2.698241
v -0.613207 2.054252 2.698242
v -0.613207 0.847431 2.698242
v -3.047494 2.054252 -1.566222
v -3.047495 2.054252 1.566222
v -3.047494 0.847431 1.566222
v -3.047494 0.847431 -1.566222
v -2.897495 2.054252 -1.566222
v -2.897495 2.054252 1.566222
v -2.897495 0.847431 1.566222
v -2.897494 0.847431 -1.566222
v 0.794526 0.847431 2.848242
v 0.794526 2.054252 2.848242
v 1.946451 2.054252 2.848242
v 1.946451 0.847431 2.848242
v 0.794526 0.847431 2.698242
v 0.794526 2.054252 2.698242
v 1.946451 2.054252 2.698242
v 1.946451 0.847431 2.698242
v -1.835843 0.776721 2.698241
v -1.835843 2.124963 2.698241
v -0.542496 2.124963 2.698242
v -0.542496 0.776721 2.698242
v -2.897495 2.124963 -1.636933
v -2.897495 2.124963 1.636933
v -2.897495 0.776721 1.636933
v -2.897494 0.776721 -1.636933
v 0.723815 0.776721 2.698242
v 0.723815 2.124963 2.698242
v 2.017161 2.124963 2.698242
v 2.017161 0.776721 2.698242
v -1.835843 0.776721 2.498241
v -0.542496 0.776721 2.498242
v -2.697495 0.776721 1.636933
v -2.697494 0.776721 -1.636933
v 0.723815 0.776721 2.498242
v 2.017161 0.776721 2.498242
v -1.765132 0.847432 2.498241
v -0.613207 0.847431 2.498242
v -2.697495 0.847431 1.566222
v -2.697494 0.847431 -1.566222
v 0.794526 0.847431 2.498242
v 1.946451 0.847431 2.498242
v -1.765132 1.503814 2.848241
v -1.765132 1.397870 2.848241
v -1.136197 2.054252 2.848241
v -1.242141 2.054252 2.848241
v -1.242141 0.847432 2.848241
v -1.136197 0.847432 2.848241
v -0.613207 1.397870 2.848242
v -0.613207 1.503814 2.848242
v -3.047494 2.054252 0.052972
v -3.047494 2.054252 -0.052972
v -3.047494 0.847431 -0.052972
v -3.047494 0.847431 0.052972
v -3.047494 1.503814 -1.566222
v -3.047494 1.397870 -1.566222
v 1.946451 1.397870 2.848242
v 1.946451 1.503814 2.848242
v 0.794526 1.503814 2.848242
v 0.794526 1.397870 2.848242
v 1.423460 2.054252 2.848242
v 1.317516 2.054252 2.848242
v 1.317516 0.847431 2.848242
v 1.423460 0.847431 2.848242
v -3.047494 1.397870 -0.052972
v -3.047494 1.503814 -0.052972
v -1.136197 1.503814 2.848241
v -1.136197 1.397870 2.848241
v -1.242141 1.397870 2.848241
v -1.242141 1.503814 2.848241
v 1.317516 1.397870 2.848242
v 1.317516 1.503814 2.848242
v 1.423460 1.503814 2.848242
v 1.423460 1.397870 2.848242
v -1.765132 1.503814 2.798241
v -1.765132 1.397870 2.798241
v -1.136197 2.054252 2.798241
v -1.242141 2.054252 2.798241
v -1.242141 0.847432 2.798241
v -1.136197 0.847432 2.798241
v -0.613207 1.397870 2.798242
v -0.613207 1.503814 2.798242
v -2.997494 2.054252 0.052972
v -2.997494 2.054252 -0.052972
v -2.997494 0.847431 -0.052972
v -2.997494 0.847431 0.052972
v -2.997494 1.503814 -1.566222
v -2.997494 1.397870 -1.566222
v 1.946451 1.397870 2.798242
v 1.946451 1.503814 2.798242
v 0.794526 1.503814 2.798242
v 0.794526 1.397870 2.798242
v 1.423460 2.054252 2.798242
v 1.317516 2.054252 2.798242
v 1.317516 0.847431 2.798242
v 1.423460 0.847431 2.798242
v -2.997494 1.397870 -0.052972
v -2.997494 1.503814 -0.052972
v -1.136197 1.503814 2.798241
v -1.136197 1.397870 2.798241
v -1.242141 1.397870 2.798241
v -1.242141 1.503814 2.798241
v 1.317516 1.397870 2.798242
v 1.317516 1.503814 2.798242
v 1.423460 1.503814 2.798242
v 1.423460 1.397870 2.798242
v 2.947494 0.084847 22.748241
v 2.947494 4.547969 72.748245
v -22.947495 -2.743367 2.748242
v -22.947495 -3.429289 22.748241
v -22.947495 -6.031792 72.748245
v -72.947495 1.337379 2.748242
v -72.947495 0.014563 22.748241
v -72.947495 -13.011503 72.748245
v 22.947495 0.134360 2.748242
v 22.947495 3.445497 22.748241
v 22.947495 10.266848 72.748245
v 72.947495 -0.567003 2.748242
v 72.947495 5.960509 22.748241
v 72.947495 18.216930 72.748245
v -2.947494 0.000000 -22.748241
v -22.947495 -1.345271 -22.748241
v -72.947495 4.787667 -22.748241
v -2.947494 0.000000 -72.748245
v -22.947495 4.402058 -72.748245
v -72.947495 12.194083 -72.748245
vt 0.7518 0.5000
vt 0.7518 3.0950
vt 6.2482 3.0950
vt 6.2482 0.5000
vt 1.3333 0.6658
vt -0.3333 0.6658
vt -0.3333 0.5748
vt 1.3333 0.5748
vt 0.6642 0.6250
vt 0.6642 -0.7233
vt -0.4475 -1.5000
vt -0.4475 1.0950
vt 0.5172 0.2767
vt 0.5172 1.6250
vt 1.4475 2.0950
vt 1.4475 -0.5000
vt 0.5525 0.5000
vt 6.4475 0.5000
vt 6.4475 3.0950
vt 0.5525 3.0950
vt 0.4475 0.5000
vt -5.4475 0.5000
vt -3.0425 1.2767
vt -1.7762 1.2767
vt 0.9575 0.6250
vt 2.2238 0.6250
vt 2.2238 -0.7233
vt 0.9575 -0.7233
vt -0.4828 1.2767
vt 0.4475 0.0950
vt -1.7762 -0.3750
vt -3.0425 -0.3750
vt -5.4475 0.0950
vt 0.9575 0.2767
vt -1.4475 -0.5000
vt -0.3358 0.2767
vt -0.3358 0.6250
vt -1.4475 1.0950
vt 0.2238 0.6250
vt 2.4475 1.0950
vt 1.5172 0.6250
vt 0.8631 0.6250
vt 4.1369 0.6250
vt 5.2482 1.0950
vt -0.2482 1.0950
vt 0.1369 0.2767
vt -3.1369 0.2767
vt -4.2482 -0.5000
vt 1.2482 -0.5000
vt 0.1369 0.6250
vt 0.1369 -0.7233
vt 1.2482 -1.5000
vt 1.2482 1.0950
vt -0.2482 -1.5000
vt 0.8631 -0.7233
vt 0.9212 0.6224
vt -7.9212 0.6224
vt -7.9212 -7.6224
vt 0.9212 -7.6224
vt 0.0000 0.0000
vt 1.0000 0.0000
vt 1.0000 1.0000
vt 0.0000 1.0000
vt -0.5028 0.7520
vt 1.4972 0.7520
vt 1.4972 0.8262
vt -0.5028 0.8262
vt 1.7381 0.6628
vt -1.1233 0.6628
vt -1.1233 0.5872
vt 1.7381 0.5872
vt -1.0489 0.3372
vt 1.8125 0.3372
vt 1.8125 0.4128
vt -1.0489 0.4128
vt -0.5000 0.4466
vt 1.5000 0.4466
vt 1.5000 0.5239
vt -0.5000 0.5239
vt 1.5983 0.2558
vt 1.5983 0.5264
vt -0.5790 0.5264
vt -0.5790 0.2558
vt 2.2047 0.2250
vt -1.2046 0.2250
vt -1.2047 0.3240
vt 2.2046 0.3240
vt 2.3839 0.4722
vt -1.3840 0.4722
vt -1.3840 0.3771
vt 2.3839 0.3771
vt -1.1311 0.4465
vt 2.1310 0.4465
vt -0.4862 0.4230
vt 1.5138 0.4230
vt 1.4089 0.5279
vt -0.3813 0.5279
vt 2.3026 0.8523
vt -1.3026 0.8523
vt -1.3026 0.4722
vt 2.3026 0.4722
vt -0.8169 0.3336
vt 1.8114 0.3336
vt 1.6735 0.4715
vt -0.6790 0.4715
vt 1.4972 0.9810
vt -0.5028 0.9810
vt -0.3979 0.8761
vt 1.3924 0.8761
vt 1.3907 0.0571
vt -0.3907 0.0571
vt -0.3907 -0.2411
vt 1.3907 -0.2411
vt 1.3907 0.6332
vt -0.3907 0.6332
vt 1.4990 0.6514
vt -0.5010 0.6514
vt -0.3961 0.5465
vt 1.3941 0.5465
vt 1.3924 0.9311
vt -0.3979 0.9311
vt -0.5000 -0.1514
vt 1.5000 -0.1514
vt 1.3907 -0.0420
vt -0.3907 -0.0420
vt -0.5000 0.5530
vt -0.3907 0.5530
vt -0.3907 0.8512
vt -0.5000 0.8512
vt 1.7259 0.6540
vt -0.7066 0.6540
vt 1.5000 0.3293
vt -0.5000 0.3293
vt -0.5000 0.2548
vt 1.5000 0.2548
vt 1.7259 0.7442
vt -0.7066 0.7442
vt 1.4972 1.0551
vt -0.5028 1.0551
vt -0.8169 0.2361
vt 1.8114 0.2361
vt -1.3839 -0.1374
vt 2.3840 -0.1374
vt 2.3026 -0.0030
vt -1.3026 -0.0030
vt -0.5000 -0.7193
vt 1.5000 -0.7193
vt 1.3907 -0.6139
vt -0.3907 -0.6139
vt -0.5000 -0.1488
vt 1.5000 -0.1488
vt 1.3907 -0.0434
vt -0.3907 -0.0434
vt 1.3907 0.5530
vt 1.3907 0.8512
vt -0.5000 0.0571
vt -0.5000 -0.2411
vt -0.5000 -0.5393
vt 1.5000 -0.5393
vt 1.5000 -0.2411
vt 1.5000 0.0571
vt 1.5000 0.5530
vt 1.5000 0.8512
vt 2.3839 0.8523
vt 2.3839 0.4722
vt -1.3840 -0.0030
vt 2.3839 -0.0030
vt -0.5000 -0.0434
vt 1.5000 -0.0434
vt -1.3840 0.8523
vt -1.3840 0.4722
vt -0.4862 0.3488
vt 1.5138 0.3488
vt 1.4990 0.7256
vt -0.5010 0.7256
vt -0.5000 -0.2287
vt 1.5000 -0.2287
vt -0.5000 -0.6139
vt 1.5000 -0.6139
vt -0.3979 0.6536
vt 1.3924 0.6536
vt -0.3979 1.1536
vt 1.3924 1.1536
vt 1.0000 0.6914
vt 0.0000 0.6914
vt 0.0000 0.5958
vt 1.0000 0.5958
vt 1.0000 0.6170
vt 0.0000 0.6170
vt 0.0000 0.5214
vt 1.0000 0.5214
vt -0.8813 -0.3729
vt 1.8813 -0.3729
vt 1.8813 -0.1969
vt -0.8813 -0.1969
vt 1.0000 0.6294
vt 0.0000 0.6294
vt 0.0000 0.5338
vt 1.0000 0.5338
vt 1.0000 1.3115
vt 0.0000 1.3115
vt 0.0000 1.2159
vt 1.0000 1.2159
vt 2.0208 0.3666
vt 2.0208 0.6334
vt -1.0193 0.6334
vt -1.0193 0.3666
vt 1.8813 0.1762
vt -0.8813 0.1762
vt 0.0000 0.3188
vt 1.0000 0.3188
vt 1.0000 1.0133
vt 0.0000 1.0133
vt 1.5008 0.4122
vt -0.4992 0.4122
vt -0.4992 0.3293
vt 1.5008 0.3293
vt 1.8813 0.3522
vt -0.8813 0.3522
vt 0.0000 0.2976
vt 1.0000 0.2976
vt 1.0000 0.3932
vt 0.0000 0.3932
vt 0.0000 0.2232
vt 1.0000 0.2232
vt 0.0000 0.2356
vt 1.0000 0.2356
vt 1.0000 0.3312
vt 0.0000 0.3312
vt 0.0000 0.9177
vt 1.0000 0.9177
vt -0.4992 0.5878
vt 1.5008 0.5878
vt 1.5008 0.6707
vt -0.4992 0.6707
vt -0.5000 0.4082
vt 1.5000 0.4082
vt -0.5000 0.2741
vt 1.5000 0.2741
vt 1.8767 0.4486
vt -1.1233 0.4486
vt -1.0489 0.5514
vt 1.9511 0.5514
vt 1.9511 0.6628
vt -1.0489 0.6628
vt 1.8767 0.3372
vt -1.1233 0.3372
vt 1.1414 1.1835
vt -0.6571 1.1835
vt -0.6571 0.3126
vt 1.1414 0.3126
vt -1.0193 0.7594
vt 2.0208 0.7594
vt -1.3026 1.1374
vt 2.3026 1.1374
vt -1.1311 0.7064
vt 2.1310 0.7064
vt -1.0193 0.2406
vt 2.0208 0.2406
vt 1.6735 0.7639
vt -0.6790 0.7639
vt -0.3907 0.3293
vt 1.3907 0.3293
vt 1.3907 0.8652
vt -0.3907 0.8652
vt -0.5013 0.9350
vt -0.5013 0.7595
vt 1.4987 0.7595
vt 1.4987 0.9350
vt 1.4987 1.0179
vt -0.5013 1.0179
vt 1.4987 0.6766
vt -0.5013 0.6766
vt -0.3907 0.1899
vt 1.3907 0.1900
vt 1.3941 0.3240
vt -0.3961 0.3240
vt -0.3907 0.2807
vt 1.3907 0.2807
vt 1.4089 0.7504
vt -0.3813 0.7504
vt 0.1507 0.5814
vt 0.1507 -1.2289
vt 4.8493 -1.2289
vt 4.8493 0.5814
vt 0.8523 0.7711
vt 0.8523 2.5814
vt 2.5802 2.5814
vt 2.5802 0.7711
vt 0.6918 0.5814
vt 2.4197 0.5814
vt 2.4197 -1.2289
vt 0.6918 -1.2289
vt 0.9737 0.1259
vt -1.9737 0.1259
vt 0.9737 -9.8741
vt 0.0263 0.1259
vt 0.0263 25.1259
vt -9.9737 25.1259
vt -9.9737 0.1259
vt 0.0263 0.1259
vt 0.0263 10.1259
vt -9.9737 10.1259
vt -9.9737 0.1259
vt 0.0263 0.8741
vt -9.9737 0.8741
vt 0.0263 -1.8741
vt 0.0263 0.1259
vt 0.0263 25.1259
vt -24.9737 25.1259
vt -24.9737 0.1259
vt 0.0263 0.1259
vt 0.0263 10.1259
vt -24.9737 10.1259
vt -24.9737 0.1259
vt 0.9737 0.1259
vt 0.9737 -24.8741
vt 10.9737 -24.8741
vt 10.9737 0.1259
vt 10.9737 -9.8741
vt 10.9737 0.1259
vt 0.9737 0.1259
vt 0.9737 -24.8741
vt 25.9737 -24.8741
vt 25.9737 0.1259
vt 0.9737 0.1259
vt 0.9737 -9.8741
vt 25.9737 -9.8741
vt 25.9737 0.1259
vt 0.0263 0.8741
vt 0.0263 10.8741
vt -24.9737 10.8741
vt -24.9737 0.8741
vt 0.0263 10.8741
vt -9.9737 10.8741
vt 0.0263 0.8741
vt 0.0263 25.8741
vt -24.9737 25.8741
vt -24.9737 0.8741
vt 0.0263 0.8741
vt 0.0263 25.8741
vt -9.9737 25.8741
vt -9.9737 0.8741
vn -1.0000 -0.0000 -0.0000
vn 0.0000 -1.0000 0.0000
vn 0.0000 -0.0000 -1.0000
vn -0.0000 -0.0000 1.0000
vn 1.0000 0.0000 0.0000
vn 0.0000 1.0000 0.0000
vn -0.7071 0.7071 0.0000
vn 0.7071 0.7071 0.0000
vn 0.0000 0.7071 -0.7071
vn 0.0000 0.7071 0.7071
vn 0.0000 1.0000 -0.0042
vn -0.2625 0.9648 -0.0180
vn -0.1350 0.9902 0.0348
vn -0.1359 0.9907 0.0000
vn -0.0349 0.9874 0.1543
vn 0.0749 0.9959 0.0500
vn -0.2200 0.9693 -0.1094
vn -0.0867 0.9927 -0.0843
vn -0.1023 0.9771 -0.1864
vn -0.0176 0.9709 -0.2388
vn 0.1012 0.9904 0.0942
vn -0.0975 0.9948 0.0306
vn 0.1368 0.9821 0.1292
vn 0.0761 0.9955 0.0572
usemtl wall
s off
f 9/1/1 8/2/1 11/3/1 22/4/1
f 24/5/2 23/6/2 28/7/2 29/8/2
f 2/9/3 1/10/3 19/11/3 7/12/3
f 6/13/3 5/14/3 8/15/3 9/16/3
f 20/17/4 22/18/4 11/19/4 21/20/4
f 9/21/3 19/22/3 4/23/3 35/24/3
f 3/25/3 36/26/3 35/27/3 4/28/3
f 9/21/3 35/24/3 6/29/3
f 8/30/3 36/31/3 3/32/3 7/33/3
f 4/34/3 19/35/3 1/36/3
f 3/25/3 2/37/3 7/38/3
f 36/39/3 8/40/3 5/41/3
f 16/42/5 15/43/5 21/44/5 7/45/5
f 18/46/5 17/47/5 19/48/5 20/49/5
f 15/50/5 18/51/5 20/52/5 21/53/5
f 16/42/5 7/45/5 19/54/5 17/55/5
usemtl floor
f 22/56/6 20/57/6 19/58/6 9/59/6
usemtl roof
f 11/60/2 8/61/2 7/62/2 21/63/2
usemtl wood
f 1/64/1 2/65/1 62/66/1 61/67/1
f 23/68/3 26/69/3 27/70/3 28/71/3
f 25/72/4 24/73/4 29/74/4 30/75/4
f 2/76/6 3/77/6 63/78/6 62/79/6
f 46/80/3 50/81/3 51/82/3 47/83/3
f 15/84/6 16/85/6 66/86/6 65/87/6
f 17/88/2 18/89/2 68/90/2 67/91/2
f 65/87/5 66/86/5 50/92/5 49/93/5
f 69/94/3 70/95/3 58/96/3 57/97/3
f 52/98/6 51/99/6 81/100/6 82/101/6
f 68/102/5 65/103/5 49/104/5 52/105/5
f 63/106/3 64/107/3 44/108/3 43/109/3
f 57/110/6 60/111/6 84/112/6 83/113/6
f 62/79/3 63/78/3 43/114/3 42/115/3
f 71/116/3 72/117/3 60/118/3 59/119/3
f 61/67/3 62/66/3 42/120/3 41/121/3
f 70/122/3 71/123/3 59/124/3 58/125/3
f 61/126/7 41/127/7 79/128/7 73/129/7
f 66/130/5 67/131/5 51/82/5 50/81/5
f 4/132/2 1/133/2 61/134/2 64/135/2
f 16/136/4 17/137/4 67/131/4 66/130/4
f 3/138/5 4/139/5 64/107/5 63/106/5
f 18/140/3 15/141/3 65/103/3 68/102/3
f 75/142/5 76/143/5 82/144/5 81/145/5
f 78/146/3 77/147/3 83/148/3 84/149/3
f 74/150/3 73/151/3 79/152/3 80/153/3
f 41/127/6 44/154/6 80/155/6 79/128/6
f 60/111/8 72/156/8 78/157/8 84/112/8
f 72/158/2 69/159/2 77/160/2 78/157/2
f 69/161/7 57/110/7 83/113/7 77/160/7
f 44/154/8 64/162/8 74/163/8 80/155/8
f 68/164/9 52/98/9 82/101/9 76/165/9
f 67/91/2 68/90/2 76/166/2 75/167/2
f 64/135/2 61/134/2 73/168/2 74/169/2
f 51/99/10 67/170/10 75/171/10 81/100/10
f 35/172/1 36/173/1 70/95/1 69/94/1
f 5/174/5 6/175/5 72/117/5 71/116/5
f 36/176/6 5/177/6 71/123/6 70/122/6
f 6/178/2 35/179/2 69/159/2 72/158/2
f 44/108/1 40/180/1 39/181/1 43/109/1
f 37/182/5 41/121/5 42/120/5 38/183/5
f 91/184/2 110/185/2 142/186/2 123/187/2
f 99/188/2 116/189/2 148/190/2 131/191/2
f 97/192/6 108/193/6 140/194/6 129/195/6
f 111/196/2 86/197/2 118/198/2 143/199/2
f 113/200/2 102/201/2 134/202/2 145/203/2
f 126/204/5 125/205/5 128/206/5 127/207/5
f 139/208/5 130/209/5 129/195/5 140/194/5
f 148/190/3 147/210/3 132/211/3 131/191/3
f 146/212/3 145/203/3 134/202/3 133/213/3
f 120/214/1 121/215/1 89/216/1 88/217/1
f 107/218/2 98/219/2 130/209/2 139/208/2
f 109/220/6 92/221/6 124/222/6 141/223/6
f 115/224/6 100/225/6 132/211/6 147/210/6
f 85/226/6 112/227/6 144/228/6 117/229/6
f 101/230/6 114/231/6 146/212/6 133/213/6
f 122/232/3 121/215/3 120/214/3 119/233/3
f 119/233/5 87/234/5 90/235/5 122/232/5
f 28/7/1 33/236/1 34/237/1 29/8/1
f 34/237/6 33/236/6 12/238/6 14/239/6
f 33/240/1 28/71/1 27/70/1 31/241/1
f 32/242/1 30/75/1 29/74/1 34/243/1
f 32/242/3 34/243/3 14/244/3 13/245/3
f 12/246/4 33/240/4 31/241/4 10/247/4
f 24/248/1 25/249/1 26/250/1 23/251/1
f 96/252/4 128/206/4 125/205/4 93/253/4
f 47/254/6 51/99/6 52/98/6 48/255/6
f 49/93/2 50/92/2 46/256/2 45/257/2
f 127/207/3 95/258/3 94/259/3 126/204/3
f 45/260/4 48/261/4 52/105/4 49/104/4
f 41/127/6 37/262/6 40/263/6 44/154/6
f 42/115/2 43/114/2 39/264/2 38/265/2
f 124/222/3 123/187/3 142/186/3 141/223/3
f 143/199/3 118/198/3 117/229/3 144/228/3
f 138/266/3 137/267/3 136/268/3 135/269/3
f 135/269/5 103/270/5 106/271/5 138/266/5
f 104/272/1 136/268/1 137/267/1 105/273/1
f 54/274/2 58/125/2 59/124/2 55/275/2
f 55/276/1 59/119/1 60/118/1 56/277/1
f 56/278/6 60/111/6 57/110/6 53/279/6
f 57/97/5 58/96/5 54/280/5 53/281/5
usemtl glass
f 46/282/5 47/283/5 48/284/5 45/285/5
f 37/286/3 38/287/3 39/288/3 40/289/3
f 54/290/3 55/291/3 56/292/3 53/293/3
usemtl grass
f 9/294/11 19/295/11 149/296/11
f 150/297/12 149/298/12 152/299/12 153/300/12
f 149/301/13 19/302/13 151/303/13 152/304/13
f 20/305/14 151/306/14 19/307/14
f 153/308/15 152/309/15 155/310/15 156/311/15
f 152/312/16 151/313/16 154/314/16 155/315/16
f 149/316/17 150/317/17 159/318/17 158/319/17
f 9/294/18 149/296/18 158/320/18 157/321/18
f 158/322/19 159/323/19 162/324/19 161/325/19
f 157/326/20 158/327/20 161/328/20 160/329/20
f 151/330/21 164/331/21 165/332/21 154/333/21
f 20/305/22 163/334/22 164/335/22 151/306/22
f 164/336/23 167/337/23 168/338/23 165/339/23
f 163/340/24 166/341/24 167/342/24 164/343/24
